<svg fill="none" height="32" viewBox="0 0 25 32" width="25" xmlns="http://www.w3.org/2000/svg"><g fill="#000"><path d="m18.8703.573563-3.4207 3.281527-3.4113-3.85509-3.4206 3.85509-3.42064-3.281527s-8.01565 13.915937 6.78534 16.426437h.1025c14.7824-2.5105 6.7854-16.426437 6.7854-16.426437z"/><path d="m24.0156 19.526c.2995-.9867-4.1671-.3289-4.749-.0779-1.2493.528-3.5853 1.7311-4.0559 4.5614s.154 3.3756-.077 3.6786c-.231.3029 2.8323.4414 3.9618.1558.8228-.1862 1.5958-.5512 2.2651-1.0699.6694-.5186 1.2192-1.1784 1.6111-1.9336 1.3006-2.1552.7616-4.3796 1.0439-5.3144z"/><path d="m.0444238 19.526c-.2994868-.9867 4.1671562-.3289 4.7490162-.0779 1.24929.528 3.58528 1.7311 4.0559 4.5614s-.15402 3.3756.07701 3.6786c.23103.3029-2.83229.4414-3.96179.1558-.82285-.1862-1.59579-.5512-2.26516-1.0699-.66936-.5186-1.2191-1.1784-1.61105-1.9336-1.257844-2.1552-.761553-4.3796-1.0439262-5.3144z"/></g><path d="m12.1253 9.18652v21.81338" stroke="#000" stroke-linecap="round" stroke-linejoin="round" stroke-width="2"/></svg>