<svg fill="none" height="35" viewBox="0 0 31 35" width="31" xmlns="http://www.w3.org/2000/svg"><path clip-rule="evenodd" d="m29.5398 25.1879.49.53c.005.0278.0033.0563-.0049.0834-.0081.027-.0225.0517-.042.0722-.0194.0204-.0434.036-.07.0454-.0266.0095-.0551.0125-.0831.009l-.7-.16c-1.3605-.2996-2.6661-.809-3.87-1.51l-.19-.1-.1 2c-.0053.0773-.0278.1524-.0658.2199-.0381.0674-.0908.1256-.1542.1701l-.19.13c-.0519.0389-.1151.06-.18.06s-.128-.0211-.18-.06l-.15-.13c-.0637-.0491-.1143-.113-.1474-.1863-.0332-.0732-.0478-.1535-.0426-.2337l.14-2.54-.88-.51-.2 3.56c-.0048.0763-.026.1506-.0623.218-.0362.0673-.0866.126-.1477.172l-.23.16c-.0512.0405-.1146.0626-.18.0626-.0653 0-.1287-.0221-.18-.0626l-.21-.18c-.0586-.0506-.1052-.1137-.1364-.1847-.0311-.0709-.046-.1479-.0436-.2253l.23-4.17-.84-.49-.17 3.07c-.0011.0771-.0207.1528-.0573.2206-.0366.0679-.0889.126-.1527.1694l-.23.16c-.0512.0405-.1146.0626-.18.0626-.0653 0-.1287-.0221-.18-.0626l-.22-.19c-.0545-.0513-.0977-.1133-.127-.1822-.0293-.0688-.0439-.143-.043-.2178l.1-3.16.18-.47-.94-.54-1 1.77h-2v1.08l.5.08 2.79 1.49c.0653.037.1222.0873.1669.1476.0448.0602.0765.1292.0931.2024v.28c.0136.0649.0053.1326-.0237.1923-.0289.0597-.0769.1081-.1363.1377l-.25.11c-.07.0344-.147.0523-.225.0523s-.155-.0179-.225-.0523l-2.76-1.43v1l3.78 1.91c.0688.0337.129.0828.1758.1435s.0791.1313.0942.2065v.27c.0136.0649.0053.1326-.0237.1923-.0289.0597-.0769.1081-.1363.1377l-.25.11c-.07.0344-.147.0523-.225.0523s-.155-.0179-.225-.0523l-3.19-1.62v1l2.3 1.14c.0726.0351.1359.087.1845.1513.0487.0643.0814.1392.0955.2187v.21c.0082.063-.0039.127-.0345.1827-.0305.0557-.078.1003-.1355.1273l-.21.1c-.0689.0321-.144.0488-.22.0488s-.1511-.0167-.22-.0488l-1.76-.89v.21c.0098 1.3917-.1891 2.7771-.59 4.11l-.22.68c-.0094.0393-.0318.0742-.0636.0992-.0317.025-.071.0386-.1114.0386s-.0796-.0136-.1114-.0386c-.0317-.025-.0541-.0599-.0636-.0992l-.21-.68c-.4191-1.3297-.6316-2.7159-.63-4.11v-.21l-1.72.88c-.0689.0321-.144.0488-.22.0488s-.1511-.0167-.22-.0488l-.22-.1c-.0567-.0273-.1029-.0724-.1318-.1283s-.0388-.1197-.0282-.1817v-.21c.0138-.0782.0453-.1522.0921-.2164.0468-.0641.1077-.1167.1779-.1536l2.27-1.15v-1l-3.18 1.65c-.07.0344-.147.0523-.225.0523s-.155-.0179-.225-.0523l-.25-.11c-.0591-.0305-.1072-.0787-.1377-.1379-.03048-.0591-.04176-.1263-.03227-.1921l.05997-.27c.0152-.0752.0474-.1458.0942-.2065.0469-.0607.107-.1098.1758-.1435l3.72-1.89v-1l-2.8 1.39c-.07.0344-.147.0523-.225.0523s-.155-.0179-.225-.0523l-.25-.11c-.0591-.0305-.1072-.0787-.1377-.1379-.0305-.0591-.0418-.1263-.0323-.1921l.06-.28c.0167-.0732.0484-.1422.0931-.2024.0448-.0603.1016-.1106.1669-.1476l2.78-1.49.5-.08v-1.07h-2l-1-1.75-.93.53.21.61.1 3.16c.0009.0743-.0148.1478-.046.2153-.0311.0674-.0769.1271-.134.1747l-.20997.19c-.05124.0405-.11466.0626-.18.0626s-.12877-.0221-.18-.0626l-.23-.16c-.06392-.044-.11697-.102-.15509-.1696-.03813-.0676-.06033-.143-.06491-.2204l-.16-3.06-.84.48.22 4.17c.00593.0769-.00638.1541-.03592.2253-.02954.0713-.07548.1345-.13408.1847l-.21.19c-.05123.0405-.11466.0626-.18.0626s-.12877-.0221-.18-.0626l-.23-.16c-.06208-.0451-.11319-.1035-.14955-.171-.03636-.0676-.05702-.1424-.06045-.219l-.2-3.57-.88.51.14 2.54c.00521.0802-.0094.1605-.04253.2337-.03313.0733-.08378.1372-.14747.1863l-.16.13c-.05038.0381-.11183.0587-.175.0587-.06318 0-.12463-.0206-.175-.0587l-.19-.14c-.06393-.044-.11697-.102-.15509-.1696-.03813-.0676-.06033-.143-.06491-.2204l-.1-2-.17.08c-1.20773.693-2.51209 1.2019-3.870003 1.51l-.700001.15c-.037743.0086-.077251.0048-.112667-.0109-.035417-.0156-.064854-.0422-.083939-.0759s-.0268035-.0726-.0220108-.111c.0047928-.0384.0218429-.0743.0486188-.1022l.479999-.53c.946173-1.0227 2.041963-1.896 3.250003-2.59l.18-.11-1.71-1.07c-.06317-.0425-.11582-.0987-.15395-.1646-.03812-.0658-.06071-.1395-.06605-.2154v-.24c-.00439-.0637.01167-.1272.04584-.1812.03418-.0539.08468-.0956.14416-.1188l.2-.07c.07333-.0294.15277-.0401.23126-.0314.0785.0087.15363.0367.21874.0814l2.08 1.44.89-.51-3-1.95c-.06317-.0425-.11582-.0987-.15395-.1646-.03812-.0658-.06071-.1395-.06605-.2154v-.28c-.00542-.0653.0114-.1304.04771-.1849s.08998-.095.15229-.1151l.26-.09c.0725-.0246.14953-.0329.22559-.0242.07606.0086.14927.034.21441.0742l3.5 2.29.84-.49-2.57-1.68c-.06451-.0419-.11872-.0979-.15855-.1637s-.06426-.1397-.07145-.2163v-.27c-.00596-.0666.01048-.1332.04671-.1894.03624-.0562.09018-.0986.15329-.1206l.27-.09c.06716-.032.14061-.0486.215-.0486s.14784.0166.215.0486l2.7 1.71.31.4.93-.54-1-1.75 1-1.75-.94-.55-.32.4-2.69 1.66c-.06716.032-.14061.0486-.215.0486s-.14784-.0166-.215-.0486l-.27-.09c-.06311-.022-.11705-.0645-.15328-.1207-.03624-.0561-.05268-.1228-.04672-.1893v-.27c.00846-.0776.03335-.1526.073-.2198.03966-.0672.09318-.1253.157-.1702l2.57-1.67-.84-.49-3.49 2.28c-.06559.0433-.14017.0713-.21811.0817s-.15723.0029-.23189-.0217l-.26-.09c-.06231-.0201-.11598-.0607-.15229-.1152-.03631-.0544-.05313-.1196-.04771-.1848v-.28c.00489-.0772.02835-.1521.0684-.2182.04004-.0662.09548-.1217.1616-.1618l3-1.95-.88-.51-2.08 1.44c-.06692.0404-.14182.0658-.21951.0744s-.15634.0003-.23049-.0244l-.2-.08c-.05961-.0222-.10991-.0639-.14263-.1185-.03271-.0545-.04589-.1185-.03737-.1815v-.23c.00646-.0768.03059-.1511.07049-.217.03989-.0659.09448-.1217.15951-.163l1.64-1.07-.18-.11c-1.20705-.6953-2.29985-1.5722-3.240002-2.60003l-.4900014-.52c-.0243937-.02932-.0393985-.06531-.0430603-.10327-.0036618-.03797.0041896-.07616.0225296-.1096.0183401-.03345.0463221-.0606.0803031-.07792.033982-.01732.072391-.02402.11023-.01921l.699997.16c1.359114.30414 2.664054.8133 3.870004 1.51003l.18.19.1-2.00003c.00458-.07746.02678-.15285.06491-.22044.03812-.06758.09117-.12557.15509-.16956l.19-.14c.05308-.03611.1158-.05543.18-.05543s.12692.01932.18.05543l.15.13c.06384.05118.11443.11696.1475.1918s.04764.15654.0425.2382l-.14 2.54003.88.51.2-3.57003c.0048-.07631.02605-.15067.0623-.21799s.08664-.126.1477-.17201l.23-.16c.05123-.04056.11466-.06263.18-.06263s.12876.02207.18.06263l.21.18c.05708.0519.1026.11522.13361.18585.03101.07064.04682.14701.04639.22415l-.23 4.17003.84.49.17-3.07003c.00011-.07591.01942-.15056.05614-.217s.08964-.12251.15386-.163l.23-.16c.05123-.04056.11465-.06263.18-.06263.06534 0 .12877.02207.18.06263l.21997.18c.0545.05126.0978.11328.127.18214.0293.06886.0439.14304.043.21786l-.1 3.16003-.18.47 1 .49 1-1.74h1.93v-1.11l-.5-.07-2.79-1.50003c-.0661-.03604-.1235-.08601-.1684-.14644s-.0762-.12988-.0916-.20356v-.28c-.0148-.06363-.007-.13045.0223-.18889.0292-.05844.0779-.10482.1377-.13111l.25-.12c.07-.03442.147-.05232.225-.05232s.155.0179.225.05232l2.76 1.44v-1l-3.8-1.87c-.0682-.03706-.1277-.08841-.1743-.15054-.0466-.06212-.0792-.13357-.09567-.20946v-.27c-.01486-.06363-.007-.13045.02222-.18889.02925-.05844.07795-.10482.13775-.13111l.25-.12c.07-.03442.147-.05232.225-.05232s.155.0179.225.05232l3.21 1.59v-1l-2.32-1.11c-.0726-.03514-.1358-.087-.1845-.15132-.0487-.06431-.0814-.13926-.0955-.21868v-.2c-.0088-.06443.0029-.13.0334-.18743.0305-.05742.0783-.1038.1366-.13257l.21-.09c.0683-.0343.1436-.05217.22-.05217s.1518.01787.22.05217l1.78.85v-.21c-.0087-1.39171.1902-2.77694.59-4.110003l.22-.68c.0095-.0392894.0319-.0742497.0636-.0992584.0318-.0250088.071-.0386086.1114-.0386086s.0797.0135998.1114.0386086c.0318.0250087.0542.059969.0636.0992584l.21.68c.4185 1.329823.631 2.715883.63 4.110003v.21l1.76-.85c.0683-.0343.1436-.05217.22-.05217s.1518.01787.22.05217l.18.07c.0575.02908.1041.07591.1329.13354.0289.05763.0384.12301.0271.18646v.2c-.0137.07819-.0452.15219-.092.21633-.0468.06413-.1077.1167-.178.15367l-2.27 1.15v1l3.19-1.62c.07-.03442.147-.05232.225-.05232s.155.0179.225.05232l.25.12c.0594.02751.1081.07367.1388.13143.0307.05777.0417.12399.0312.18857l-.06.27c-.0201.07317-.0555.14126-.1037.19984-.0483.05859-.1083.10634-.1763.14016l-3.72 1.88v1l2.74-1.42c.07-.03442.147-.05232.225-.05232s.155.0179.225.05232l.24.14c.0594.02751.1081.07366.1388.13143s.0417.12399.0312.18857l-.06.28c-.0154.07368-.0466.14313-.0915.20356s-.1024.1104-.1685.14644l-2.78 1.50003-.5.07v1.16h2l1 1.73 1-.55-.19-.55-.1-3.16003c-.0009-.07576.0147-.15082.0458-.21991s.0769-.13056.1342-.18009l.21-.19c.0513-.04056.1147-.06263.18-.06263.0654 0 .1288.02207.18.06263l.23.16c.0639.04399.117.10198.1551.16956.0381.06759.0603.14298.0649.22044l.16 3.06003.84-.48-.22-4.17003c-.0059-.0769.0064-.15411.0359-.22535.0296-.07125.0755-.13451.1341-.18465l.21-.19c.052-.03895.1151-.06.18-.06s.1281.02105.18.06l.23.15c.0621.04503.1132.10349.1496.17101.0363.06752.057.14237.0604.21899l.2 3.57003.88-.51-.14-2.54003c-.0052-.08022.0094-.1605.0426-.23374.0331-.07325.0837-.13721.1474-.18626l.14-.22c.0504-.03813.1119-.05876.175-.05876.0632 0 .1247.02063.175.05876l.19.13c.064.04399.117.10198.1551.16956.0381.06759.0603.14298.0649.22044l.1 2.00003.17-.06c1.2039-.70104 2.5095-1.21046 3.87-1.51003l.7-.16c.0378-.0086.0773-.00481.1127.01082s.0648.04226.0839.07594.0268.07261.022.11102c-.0047.03842-.0218.07426-.0486.10222l-.48.53c-.9485 1.02283-2.0438 1.89913-3.25 2.60003l-.18.1 1.76.92c.0639.044.117.1019.1551.1695s.0603.143.0649.2205v.23c.0044.0637-.0116.1271-.0458.1811s-.0847.0956-.1442.1189l-.2.07c-.0693.0367-.1465.056-.225.056-.0784 0-.1557-.0193-.225-.056l-2.13-1.39-.89.51 3 2c.0639.044.117.1019.1551.1695s.0603.143.0649.2205v.27c.006.0665-.0105.1332-.0467.1893-.0362.0562-.0902.0987-.1533.1207l-.26.08c-.0689.0321-.144.0488-.22.0488s-.1511-.0167-.22-.0488l-3.5-2.28-.84.48 2.57 1.68c.0636.0429.117.0991.1568.1647.0397.0656.0647.1391.0732.2153v.28c.0054.0652-.0114.1304-.0477.1848-.0363.0545-.09.0951-.1523.1152l-.27.09c-.0708.0244-.1462.0326-.2207.0239-.0744-.0086-.1459-.0339-.2093-.0739l-2.63-1.66-.31-.39-1 .55 1 1.76-1 1.73.94.54.32-.39 2.67-1.66c.0634-.0401.1349-.0653.2093-.074.0745-.0086.1499-.0005.2207.024l.27.09c.0623.0201.116.0606.1523.1151s.0531.1196.0477.1849v.28c-.0098.0758-.0353.1488-.0749.2142-.0396.0655-.0924.1219-.1551.1658l-2.57 1.68.84.48 3.51-2.33c.0656-.0434.1402-.0713.2181-.0817.078-.0104.1573-.003.2319.0217l.26.09c.0631.022.1171.0644.1533.1206s.0527.1228.0467.1894v.27c-.0064.0781-.0305.1538-.0703.2213-.0398.0676-.0944.1252-.1597.1687l-3 2 .88.51 2.04-1.44c.0693-.0368.1466-.056.225-.056.0785 0 .1557.0192.225.056l.2.07c.0596.0221.1099.0639.1426.1184.0328.0545.0459.1186.0374.1816v.23c-.0049.0772-.0283.152-.0684.2182-.04.0661-.0955.1216-.1616.1618l-1.64 1.08.27.1c1.2071.6952 2.2999 1.5721 3.24 2.6zm-14.62-4.52 2.79-1.61v-3.23l-2.79-1.62-2.8 1.62v3.23zm.1004-1.84-1.31-.76v-1.5101l1.31-.7599 1.31.7599v1.5101z" fill="#000" fill-rule="evenodd"/></svg>