<svg fill="none" height="31" viewBox="0 0 27 31" width="27" xmlns="http://www.w3.org/2000/svg"><path d="m19.31 21.29c.12-.62 3.78-3.38 6.94-5.83l-1.18-.38c-.2013-.0668-.3703-.2064-.4739-.3914s-.1343-.4021-.0861-.6086l1.16-4.18001-3.18.87001c-.1385.0385-.2836.0466-.4255.0239-.1419-.0226-.2773-.0756-.3969-.1554-.1195-.0797-.2205-.1842-.296-.3065-.0756-.1223-.1238-.2594-.1416-.402l-.15-1.27-3.27 3.15c-.0581.0581-.1334.0959-.2148.1076-.0813.0116-.1643-.0033-.2364-.0428-.0721-.0394-.1294-.1011-.1635-.1759-.034-.0748-.0429-.1586-.0253-.2389l1.31-7-1.84 1c-.0693.03806-.1456.06179-.2242.06979-.0787.00801-.1582.00012-.2338-.02321-.0755-.02332-.1456-.06159-.2061-.11254s-.1101-.11354-.1459-.18404l-2.69-5.21-2.68 5.21c-.0368.07085-.0874.13364-.1488.18469-.0613.05105-.1323.08934-.2087.11263-.0763.02328-.15658.03109-.236.02296-.07942-.00812-.15643-.03202-.2265-.07028l-1.84-1 1.31 7c.01761.0803.00872.1641-.02533.2389-.03404.0748-.09142.1365-.16352.1759-.07209.0395-.15503.0544-.23637.0428-.08134-.0117-.1567-.0495-.21478-.1076l-3.26-3.15-.15 1.23999c-.01749.14371-.06598.28201-.14212.40511-.07615.1232-.17813.2283-.29889.3082-.12077.0799-.25744.1326-.40057.1544-.14313.0219-.28931.0125-.42842-.0277l-3.21-.87 1.16 4.18c.04822.2065.0175.4236-.08611.6086s-.27263.3246-.47389.3914l-1.18.38c3.16 2.45 6.82 5.21 6.94 5.83s-1 2.35-1 2.35c1.75703-.599 3.55504-1.0702 5.38-1.41.94 0 1.17.85 1.17 1.7s-.55 6.45-.27 6.65c.5756.2052 1.2044.2052 1.78 0 .22-.2-.27-5.8-.27-6.65s.23-1.68 1.17-1.7c1.825.3398 3.623.811 5.38 1.41 0 0-1.11-1.59-.97-2.32z" fill="#000"/></svg>